<svg xmlns="http://www.w3.org/2000/svg" xmlns:xlink="http://www.w3.org/1999/xlink" width="500" zoomAndPan="magnify" viewBox="0 0 375 374.999991" height="500" preserveAspectRatio="xMidYMid meet" version="1.0"><defs><g/></defs><path stroke-linecap="butt" transform="matrix(0.239964, 0, 0, 0.239964, -39.949058, 106.647084)" fill-opacity="1" fill="#ffbd59" fill-rule="nonzero" stroke-linejoin="round" d="M 410.673487 194.387284 C 392.376446 189.471175 373.851505 195.087259 361.056599 207.279861 C 354.382412 199.254557 345.331562 193.052446 334.490077 190.138593 C 306.55616 182.666759 277.79204 199.270836 270.303927 227.204752 C 269.750457 229.255844 269.603951 231.323214 269.310938 233.374306 C 244.160645 230.753467 220.101013 246.494782 213.345433 271.69391 C 206.654967 296.665139 219.287088 322.189837 241.979326 332.689473 C 240.742159 335.359148 239.586385 338.110216 238.805017 341.056626 C 231.316904 368.974264 247.953537 397.689549 275.871176 405.177662 C 289.545121 408.840326 303.381851 406.691563 314.858198 400.29411 C 321.174259 413.821549 332.959897 424.71187 348.505871 428.879167 C 370.693475 434.820822 393.190371 425.411845 405.334137 407.358982 C 410.266524 410.842582 415.736102 413.723878 421.889378 415.384286 C 449.823294 422.872398 478.522301 406.235765 486.010414 378.318127 C 489.770749 364.269776 487.442922 350.05864 480.654785 338.403229 C 487.377808 332.005776 492.635766 323.882801 495.224049 314.262204 C 502.695883 286.328287 486.075528 257.629281 458.141611 250.141168 C 455.21148 249.359799 452.26507 248.904001 449.334939 248.643545 C 451.060461 224.111836 435.302867 200.980079 410.673487 194.371005 Z M 410.673487 194.387284 " stroke="#000000" stroke-width="14.79" stroke-opacity="1" stroke-miterlimit="4"/><g fill="#000000" fill-opacity="1"><g transform="translate(31.015939, 194.914324)"><g><path d="M 0.6875 -8.515625 C 0.914062 -9.660156 1.203125 -10.941406 1.546875 -12.359375 C 1.898438 -13.773438 2.296875 -15.234375 2.734375 -16.734375 C 3.171875 -18.234375 3.617188 -19.691406 4.078125 -21.109375 C 4.546875 -22.523438 5.003906 -23.8125 5.453125 -24.96875 C 5.898438 -26.125 6.304688 -27.054688 6.671875 -27.765625 C 7.453125 -28.023438 8.382812 -28.269531 9.46875 -28.5 C 10.550781 -28.726562 11.695312 -28.851562 12.90625 -28.875 C 14.125 -28.90625 15.332031 -28.75 16.53125 -28.40625 C 17.726562 -28.070312 18.828125 -27.46875 19.828125 -26.59375 C 20.835938 -25.71875 21.664062 -24.492188 22.3125 -22.921875 C 22.613281 -22.160156 22.96875 -21.1875 23.375 -20 C 23.789062 -18.8125 24.222656 -17.488281 24.671875 -16.03125 C 25.117188 -14.570312 25.554688 -13.070312 25.984375 -11.53125 C 26.410156 -10 26.796875 -8.5 27.140625 -7.03125 C 27.492188 -5.570312 27.773438 -4.242188 27.984375 -3.046875 C 27.929688 -2.535156 27.664062 -2.023438 27.1875 -1.515625 C 26.71875 -1.015625 26.113281 -0.585938 25.375 -0.234375 C 24.644531 0.109375 23.859375 0.335938 23.015625 0.453125 C 22.171875 0.566406 21.328125 0.5 20.484375 0.25 C 19.648438 0.0078125 18.894531 -0.46875 18.21875 -1.1875 C 17.550781 -1.914062 17.023438 -2.925781 16.640625 -4.21875 C 15.742188 -4.257812 14.8125 -4.269531 13.84375 -4.25 C 12.875 -4.226562 11.9375 -4.226562 11.03125 -4.25 C 10.78125 -3.65625 10.546875 -3.003906 10.328125 -2.296875 C 10.109375 -1.597656 9.894531 -0.878906 9.6875 -0.140625 C 7.9375 0.503906 6.425781 0.734375 5.15625 0.546875 C 3.882812 0.367188 2.863281 -0.125 2.09375 -0.9375 C 1.320312 -1.757812 0.816406 -2.820312 0.578125 -4.125 C 0.347656 -5.4375 0.382812 -6.898438 0.6875 -8.515625 Z M 12.0625 -12.484375 C 12.664062 -12.484375 13.25 -12.484375 13.8125 -12.484375 C 14.382812 -12.484375 14.96875 -12.484375 15.5625 -12.484375 C 15.289062 -13.640625 15.015625 -14.78125 14.734375 -15.90625 C 14.453125 -17.039062 14.175781 -18.179688 13.90625 -19.328125 C 13.851562 -19.304688 13.769531 -19.296875 13.65625 -19.296875 C 13.40625 -18.171875 13.140625 -17.046875 12.859375 -15.921875 C 12.585938 -14.804688 12.320312 -13.660156 12.0625 -12.484375 Z M 12.0625 -12.484375 "/></g></g></g><path stroke-linecap="butt" transform="matrix(0.239964, 0, 0, 0.239964, -0.949057, 83.721359)" fill-opacity="1" fill="#38b6ff" fill-rule="nonzero" stroke-linejoin="round" d="M 410.673482 194.387049 C 392.376441 189.47094 373.851501 195.087025 361.056595 207.279626 C 354.382407 199.254322 345.331558 193.052211 334.490073 190.138359 C 306.556156 182.666524 277.792035 199.270601 270.303922 227.204518 C 269.750453 229.255609 269.603947 231.32298 269.310933 233.374071 C 244.160641 230.753232 220.101009 246.494548 213.345429 271.693675 C 206.654963 296.664904 219.287083 322.189602 241.979321 332.689239 C 240.742155 335.358914 239.586381 338.109981 238.805013 341.056391 C 231.3169 368.974029 247.953533 397.689314 275.871171 405.177427 C 289.545117 408.840091 303.381847 406.691328 314.858194 400.293875 C 321.174255 413.821314 332.959893 424.711635 348.505867 428.878932 C 370.693471 434.820587 393.190367 425.411611 405.334132 407.358747 C 410.26652 410.842347 415.736098 413.723643 421.889373 415.384051 C 449.82329 422.872164 478.522297 406.23553 486.01041 378.317892 C 489.770745 364.269541 487.442918 350.058405 480.654781 338.402994 C 487.377804 332.005541 492.635762 323.882567 495.224044 314.261969 C 502.695879 286.328053 486.075524 257.629046 458.141607 250.140933 C 455.211476 249.359565 452.265066 248.903766 449.334935 248.64331 C 451.060457 224.111601 435.302862 200.979844 410.673482 194.37077 Z M 410.673482 194.387049 " stroke="#000000" stroke-width="14.79" stroke-opacity="1" stroke-miterlimit="4"/><g fill="#000000" fill-opacity="1"><g transform="translate(68.788534, 171.882995)"><g><path d="M 18.578125 -16.015625 C 18.578125 -17.304688 18.578125 -18.507812 18.578125 -19.625 C 18.578125 -20.75 18.578125 -21.875 18.578125 -23 C 18.578125 -24.132812 18.578125 -25.359375 18.578125 -26.671875 C 19.285156 -27.515625 20.082031 -28.109375 20.96875 -28.453125 C 21.863281 -28.804688 22.773438 -28.941406 23.703125 -28.859375 C 24.640625 -28.773438 25.5 -28.515625 26.28125 -28.078125 C 27.0625 -27.640625 27.691406 -27.046875 28.171875 -26.296875 C 28.660156 -25.554688 28.90625 -24.703125 28.90625 -23.734375 C 28.90625 -23.171875 28.90625 -22.359375 28.90625 -21.296875 C 28.914062 -20.242188 28.925781 -19.039062 28.9375 -17.6875 C 28.945312 -16.34375 28.957031 -14.921875 28.96875 -13.421875 C 28.976562 -11.921875 28.976562 -10.429688 28.96875 -8.953125 C 28.957031 -7.484375 28.929688 -6.097656 28.890625 -4.796875 C 28.859375 -3.492188 28.804688 -2.359375 28.734375 -1.390625 C 28.117188 -0.785156 27.3125 -0.316406 26.3125 0.015625 C 25.320312 0.347656 24.238281 0.476562 23.0625 0.40625 C 21.894531 0.34375 20.742188 0.03125 19.609375 -0.53125 C 18.484375 -1.09375 17.484375 -1.96875 16.609375 -3.15625 C 16.210938 -3.707031 15.800781 -4.332031 15.375 -5.03125 C 14.945312 -5.726562 14.535156 -6.421875 14.140625 -7.109375 C 13.753906 -7.804688 13.410156 -8.429688 13.109375 -8.984375 C 12.804688 -9.546875 12.566406 -9.953125 12.390625 -10.203125 C 12.359375 -10.296875 12.304688 -10.378906 12.234375 -10.453125 C 12.171875 -10.535156 12.113281 -10.613281 12.0625 -10.6875 C 12.039062 -10.6875 12.007812 -10.679688 11.96875 -10.671875 C 11.925781 -10.660156 11.890625 -10.65625 11.859375 -10.65625 C 11.878906 -9.800781 11.90625 -9.015625 11.9375 -8.296875 C 11.976562 -7.585938 12.015625 -6.882812 12.046875 -6.1875 C 12.085938 -5.5 12.113281 -4.757812 12.125 -3.96875 C 12.132812 -3.1875 12.128906 -2.28125 12.109375 -1.25 C 11.179688 -0.488281 10.234375 0.0078125 9.265625 0.25 C 8.296875 0.5 7.367188 0.550781 6.484375 0.40625 C 5.597656 0.269531 4.800781 -0.015625 4.09375 -0.453125 C 3.394531 -0.890625 2.835938 -1.414062 2.421875 -2.03125 C 2.003906 -2.65625 1.785156 -3.304688 1.765625 -3.984375 C 1.722656 -5.160156 1.6875 -6.457031 1.65625 -7.875 C 1.632812 -9.289062 1.613281 -10.765625 1.59375 -12.296875 C 1.570312 -13.828125 1.5625 -15.332031 1.5625 -16.8125 C 1.5625 -18.289062 1.566406 -19.691406 1.578125 -21.015625 C 1.585938 -22.335938 1.609375 -23.503906 1.640625 -24.515625 C 1.679688 -25.535156 1.734375 -26.320312 1.796875 -26.875 C 2.484375 -27.445312 3.320312 -27.898438 4.3125 -28.234375 C 5.3125 -28.578125 6.359375 -28.734375 7.453125 -28.703125 C 8.546875 -28.679688 9.585938 -28.40625 10.578125 -27.875 C 11.578125 -27.34375 12.421875 -26.503906 13.109375 -25.359375 C 13.597656 -24.523438 14.035156 -23.765625 14.421875 -23.078125 C 14.816406 -22.398438 15.195312 -21.734375 15.5625 -21.078125 C 15.9375 -20.421875 16.320312 -19.734375 16.71875 -19.015625 C 17.125 -18.304688 17.582031 -17.5 18.09375 -16.59375 C 18.15625 -16.476562 18.21875 -16.367188 18.28125 -16.265625 C 18.34375 -16.160156 18.40625 -16.054688 18.46875 -15.953125 C 18.488281 -15.972656 18.503906 -15.984375 18.515625 -15.984375 C 18.535156 -15.984375 18.554688 -15.992188 18.578125 -16.015625 Z M 18.578125 -16.015625 "/></g></g></g><path stroke-linecap="butt" transform="matrix(0.239964, 0, 0, 0.239964, 33.550934, 116.674483)" fill-opacity="1" fill="#ff3131" fill-rule="nonzero" stroke-linejoin="round" d="M 410.673523 194.387055 C 392.376482 189.470946 373.851541 195.087031 361.056635 207.279632 C 354.382448 199.254329 345.331598 193.052218 334.490113 190.138365 C 306.556196 182.666531 277.792076 199.270607 270.303963 227.204524 C 269.750494 229.255616 269.603987 231.322986 269.310974 233.374078 C 244.160682 230.753238 220.101049 246.494554 213.345469 271.693682 C 206.655003 296.664911 219.287124 322.189608 241.979362 332.689245 C 240.742195 335.35892 239.586421 338.109988 238.805053 341.056397 C 231.31694 368.974036 247.953574 397.689321 275.871212 405.177434 C 289.545157 408.840098 303.381888 406.691335 314.858235 400.293882 C 321.174295 413.821321 332.959934 424.711641 348.505907 428.878939 C 370.693511 434.820594 393.190407 425.411617 405.334173 407.358754 C 410.26656 410.842354 415.736138 413.72365 421.889414 415.384057 C 449.82333 422.87217 478.522337 406.235537 486.01045 378.317898 C 489.770785 364.269547 487.442959 350.058411 480.654821 338.403001 C 487.377845 332.005548 492.635802 323.882573 495.224085 314.261976 C 502.695919 286.328059 486.075564 257.629052 458.141647 250.140939 C 455.211516 249.359571 452.265106 248.903773 449.334975 248.643317 C 451.060497 224.111608 435.302903 200.97985 410.673523 194.370777 Z M 410.673523 194.387055 " stroke="#000000" stroke-width="14.79" stroke-opacity="1" stroke-miterlimit="4"/><g fill="#000000" fill-opacity="1"><g transform="translate(103.288527, 204.836118)"><g><path d="M 18.578125 -16.015625 C 18.578125 -17.304688 18.578125 -18.507812 18.578125 -19.625 C 18.578125 -20.75 18.578125 -21.875 18.578125 -23 C 18.578125 -24.132812 18.578125 -25.359375 18.578125 -26.671875 C 19.285156 -27.515625 20.082031 -28.109375 20.96875 -28.453125 C 21.863281 -28.804688 22.773438 -28.941406 23.703125 -28.859375 C 24.640625 -28.773438 25.5 -28.515625 26.28125 -28.078125 C 27.0625 -27.640625 27.691406 -27.046875 28.171875 -26.296875 C 28.660156 -25.554688 28.90625 -24.703125 28.90625 -23.734375 C 28.90625 -23.171875 28.90625 -22.359375 28.90625 -21.296875 C 28.914062 -20.242188 28.925781 -19.039062 28.9375 -17.6875 C 28.945312 -16.34375 28.957031 -14.921875 28.96875 -13.421875 C 28.976562 -11.921875 28.976562 -10.429688 28.96875 -8.953125 C 28.957031 -7.484375 28.929688 -6.097656 28.890625 -4.796875 C 28.859375 -3.492188 28.804688 -2.359375 28.734375 -1.390625 C 28.117188 -0.785156 27.3125 -0.316406 26.3125 0.015625 C 25.320312 0.347656 24.238281 0.476562 23.0625 0.40625 C 21.894531 0.34375 20.742188 0.03125 19.609375 -0.53125 C 18.484375 -1.09375 17.484375 -1.96875 16.609375 -3.15625 C 16.210938 -3.707031 15.800781 -4.332031 15.375 -5.03125 C 14.945312 -5.726562 14.535156 -6.421875 14.140625 -7.109375 C 13.753906 -7.804688 13.410156 -8.429688 13.109375 -8.984375 C 12.804688 -9.546875 12.566406 -9.953125 12.390625 -10.203125 C 12.359375 -10.296875 12.304688 -10.378906 12.234375 -10.453125 C 12.171875 -10.535156 12.113281 -10.613281 12.0625 -10.6875 C 12.039062 -10.6875 12.007812 -10.679688 11.96875 -10.671875 C 11.925781 -10.660156 11.890625 -10.65625 11.859375 -10.65625 C 11.878906 -9.800781 11.90625 -9.015625 11.9375 -8.296875 C 11.976562 -7.585938 12.015625 -6.882812 12.046875 -6.1875 C 12.085938 -5.5 12.113281 -4.757812 12.125 -3.96875 C 12.132812 -3.1875 12.128906 -2.28125 12.109375 -1.25 C 11.179688 -0.488281 10.234375 0.0078125 9.265625 0.25 C 8.296875 0.5 7.367188 0.550781 6.484375 0.40625 C 5.597656 0.269531 4.800781 -0.015625 4.09375 -0.453125 C 3.394531 -0.890625 2.835938 -1.414062 2.421875 -2.03125 C 2.003906 -2.65625 1.785156 -3.304688 1.765625 -3.984375 C 1.722656 -5.160156 1.6875 -6.457031 1.65625 -7.875 C 1.632812 -9.289062 1.613281 -10.765625 1.59375 -12.296875 C 1.570312 -13.828125 1.5625 -15.332031 1.5625 -16.8125 C 1.5625 -18.289062 1.566406 -19.691406 1.578125 -21.015625 C 1.585938 -22.335938 1.609375 -23.503906 1.640625 -24.515625 C 1.679688 -25.535156 1.734375 -26.320312 1.796875 -26.875 C 2.484375 -27.445312 3.320312 -27.898438 4.3125 -28.234375 C 5.3125 -28.578125 6.359375 -28.734375 7.453125 -28.703125 C 8.546875 -28.679688 9.585938 -28.40625 10.578125 -27.875 C 11.578125 -27.34375 12.421875 -26.503906 13.109375 -25.359375 C 13.597656 -24.523438 14.035156 -23.765625 14.421875 -23.078125 C 14.816406 -22.398438 15.195312 -21.734375 15.5625 -21.078125 C 15.9375 -20.421875 16.320312 -19.734375 16.71875 -19.015625 C 17.125 -18.304688 17.582031 -17.5 18.09375 -16.59375 C 18.15625 -16.476562 18.21875 -16.367188 18.28125 -16.265625 C 18.34375 -16.160156 18.40625 -16.054688 18.46875 -15.953125 C 18.488281 -15.972656 18.503906 -15.984375 18.515625 -15.984375 C 18.535156 -15.984375 18.554688 -15.992188 18.578125 -16.015625 Z M 18.578125 -16.015625 "/></g></g></g><path stroke-linecap="butt" transform="matrix(0.239964, 0, 0, 0.239964, 72.550927, 73.146938)" fill-opacity="1" fill="#ffbd59" fill-rule="nonzero" stroke-linejoin="round" d="M 410.67355 194.387891 C 392.376509 189.471782 373.851569 195.087867 361.056663 207.280468 C 354.382476 199.255165 345.331626 193.053054 334.490141 190.139201 C 306.556224 182.667367 277.792103 199.271443 270.30399 227.20536 C 269.750521 229.256452 269.604015 231.307544 269.311002 233.374914 C 244.160709 230.754074 220.101077 246.49539 213.345497 271.694518 C 206.655031 296.665746 219.287152 322.190444 241.979389 332.690081 C 240.742223 335.359756 239.586449 338.110824 238.805081 341.057233 C 231.316968 368.974872 247.953601 397.690157 275.87124 405.17827 C 289.545185 408.840934 303.381915 406.692171 314.858262 400.294718 C 321.174323 413.822156 332.959961 424.712477 348.505935 428.879775 C 370.693539 434.82143 393.190435 425.412453 405.3342 407.359589 C 410.266588 410.84319 415.736166 413.724485 421.889441 415.384893 C 449.823358 422.856727 478.522365 406.236373 486.010478 378.318734 C 489.770813 364.270383 487.442986 350.059247 480.654849 338.403837 C 487.377872 332.006384 492.63583 323.883409 495.224112 314.262812 C 502.695947 286.328895 486.075592 257.629888 458.141675 250.141775 C 455.211544 249.360407 452.265134 248.904609 449.335003 248.644153 C 451.060525 224.112444 435.302931 200.980686 410.67355 194.371613 Z M 410.67355 194.387891 " stroke="#000000" stroke-width="14.79" stroke-opacity="1" stroke-miterlimit="4"/><g fill="#000000" fill-opacity="1"><g transform="translate(142.081757, 161.308567)"><g><path d="M 29.09375 -9.6875 C 28.882812 -7.863281 28.351562 -6.296875 27.5 -4.984375 C 26.644531 -3.671875 25.582031 -2.585938 24.3125 -1.734375 C 23.039062 -0.878906 21.660156 -0.25 20.171875 0.15625 C 18.691406 0.5625 17.210938 0.765625 15.734375 0.765625 C 14.535156 0.765625 13.332031 0.695312 12.125 0.5625 C 10.914062 0.4375 9.75 0.175781 8.625 -0.21875 C 7.507812 -0.625 6.476562 -1.207031 5.53125 -1.96875 C 4.59375 -2.726562 3.800781 -3.722656 3.15625 -4.953125 C 2.507812 -6.191406 2.066406 -7.734375 1.828125 -9.578125 C 1.578125 -11.304688 1.457031 -13.1875 1.46875 -15.21875 C 1.476562 -17.25 1.566406 -19.320312 1.734375 -21.4375 C 1.910156 -23.5625 2.128906 -25.601562 2.390625 -27.5625 C 2.597656 -27.789062 2.976562 -28 3.53125 -28.1875 C 4.082031 -28.375 4.734375 -28.515625 5.484375 -28.609375 C 6.234375 -28.703125 7.007812 -28.71875 7.8125 -28.65625 C 8.625 -28.59375 9.382812 -28.414062 10.09375 -28.125 C 10.8125 -27.84375 11.414062 -27.4375 11.90625 -26.90625 C 12.40625 -26.375 12.710938 -25.671875 12.828125 -24.796875 C 12.859375 -24.492188 12.878906 -23.910156 12.890625 -23.046875 C 12.898438 -22.179688 12.90625 -21.15625 12.90625 -19.96875 C 12.90625 -18.78125 12.921875 -17.535156 12.953125 -16.234375 C 12.984375 -14.929688 13.03125 -13.691406 13.09375 -12.515625 C 13.164062 -11.335938 13.265625 -10.335938 13.390625 -9.515625 C 13.503906 -8.890625 13.765625 -8.394531 14.171875 -8.03125 C 14.585938 -7.675781 15.050781 -7.484375 15.5625 -7.453125 C 16.070312 -7.421875 16.546875 -7.582031 16.984375 -7.9375 C 17.421875 -8.289062 17.71875 -8.859375 17.875 -9.640625 C 18 -10.316406 18.113281 -11.207031 18.21875 -12.3125 C 18.320312 -13.414062 18.398438 -14.617188 18.453125 -15.921875 C 18.515625 -17.234375 18.539062 -18.5625 18.53125 -19.90625 C 18.53125 -21.257812 18.488281 -22.539062 18.40625 -23.75 C 18.332031 -24.957031 18.210938 -25.988281 18.046875 -26.84375 C 18.421875 -27.226562 18.9375 -27.554688 19.59375 -27.828125 C 20.25 -28.109375 20.984375 -28.300781 21.796875 -28.40625 C 22.617188 -28.507812 23.441406 -28.5 24.265625 -28.375 C 25.085938 -28.25 25.859375 -27.984375 26.578125 -27.578125 C 27.304688 -27.171875 27.910156 -26.585938 28.390625 -25.828125 C 28.878906 -25.066406 29.179688 -24.101562 29.296875 -22.9375 C 29.367188 -22.164062 29.4375 -21.457031 29.5 -20.8125 C 29.570312 -20.175781 29.625 -19.53125 29.65625 -18.875 C 29.6875 -18.21875 29.691406 -17.484375 29.671875 -16.671875 C 29.648438 -15.859375 29.597656 -14.890625 29.515625 -13.765625 C 29.429688 -12.640625 29.289062 -11.28125 29.09375 -9.6875 Z M 29.09375 -9.6875 "/></g></g></g><path stroke-linecap="butt" transform="matrix(0.239964, 0, 0, 0.239964, 110.050939, 109.647084)" fill-opacity="1" fill="#38b6ff" fill-rule="nonzero" stroke-linejoin="round" d="M 410.673501 194.387284 C 392.37646 189.471176 373.851519 195.08726 361.056613 207.279861 C 354.382426 199.254558 345.331576 193.052447 334.490091 190.138594 C 306.556174 182.66676 277.792054 199.270836 270.303941 227.204753 C 269.750471 229.255845 269.603965 231.323215 269.310952 233.374307 C 244.160659 230.753468 220.101027 246.494783 213.345447 271.693911 C 206.654981 296.66514 219.287102 322.189838 241.97934 332.689474 C 240.742173 335.359149 239.586399 338.110217 238.805031 341.056626 C 231.316918 368.974265 247.953551 397.68955 275.87119 405.177663 C 289.545135 408.840327 303.381866 406.691564 314.858212 400.294111 C 321.174273 413.82155 332.959912 424.71187 348.505885 428.879168 C 370.693489 434.820823 393.190385 425.411846 405.334151 407.358983 C 410.266538 410.842583 415.736116 413.723879 421.889392 415.384286 C 449.823308 422.872399 478.522315 406.235766 486.010428 378.318127 C 489.770763 364.269776 487.442937 350.05864 480.654799 338.40323 C 487.377822 332.005777 492.63578 323.882802 495.224063 314.262205 C 502.695897 286.328288 486.075542 257.629282 458.141625 250.141169 C 455.211494 249.3598 452.265084 248.904002 449.334953 248.643546 C 451.060475 224.111837 435.302881 200.98008 410.673501 194.371006 Z M 410.673501 194.387284 " stroke="#000000" stroke-width="14.79" stroke-opacity="1" stroke-miterlimit="4"/><g fill="#000000" fill-opacity="1"><g transform="translate(179.788515, 197.808707)"><g><path d="M 18.578125 -16.015625 C 18.578125 -17.304688 18.578125 -18.507812 18.578125 -19.625 C 18.578125 -20.75 18.578125 -21.875 18.578125 -23 C 18.578125 -24.132812 18.578125 -25.359375 18.578125 -26.671875 C 19.285156 -27.515625 20.082031 -28.109375 20.96875 -28.453125 C 21.863281 -28.804688 22.773438 -28.941406 23.703125 -28.859375 C 24.640625 -28.773438 25.5 -28.515625 26.28125 -28.078125 C 27.0625 -27.640625 27.691406 -27.046875 28.171875 -26.296875 C 28.660156 -25.554688 28.90625 -24.703125 28.90625 -23.734375 C 28.90625 -23.171875 28.90625 -22.359375 28.90625 -21.296875 C 28.914062 -20.242188 28.925781 -19.039062 28.9375 -17.6875 C 28.945312 -16.34375 28.957031 -14.921875 28.96875 -13.421875 C 28.976562 -11.921875 28.976562 -10.429688 28.96875 -8.953125 C 28.957031 -7.484375 28.929688 -6.097656 28.890625 -4.796875 C 28.859375 -3.492188 28.804688 -2.359375 28.734375 -1.390625 C 28.117188 -0.785156 27.3125 -0.316406 26.3125 0.015625 C 25.320312 0.347656 24.238281 0.476562 23.0625 0.40625 C 21.894531 0.34375 20.742188 0.03125 19.609375 -0.53125 C 18.484375 -1.09375 17.484375 -1.96875 16.609375 -3.15625 C 16.210938 -3.707031 15.800781 -4.332031 15.375 -5.03125 C 14.945312 -5.726562 14.535156 -6.421875 14.140625 -7.109375 C 13.753906 -7.804688 13.410156 -8.429688 13.109375 -8.984375 C 12.804688 -9.546875 12.566406 -9.953125 12.390625 -10.203125 C 12.359375 -10.296875 12.304688 -10.378906 12.234375 -10.453125 C 12.171875 -10.535156 12.113281 -10.613281 12.0625 -10.6875 C 12.039062 -10.6875 12.007812 -10.679688 11.96875 -10.671875 C 11.925781 -10.660156 11.890625 -10.65625 11.859375 -10.65625 C 11.878906 -9.800781 11.90625 -9.015625 11.9375 -8.296875 C 11.976562 -7.585938 12.015625 -6.882812 12.046875 -6.1875 C 12.085938 -5.5 12.113281 -4.757812 12.125 -3.96875 C 12.132812 -3.1875 12.128906 -2.28125 12.109375 -1.25 C 11.179688 -0.488281 10.234375 0.0078125 9.265625 0.25 C 8.296875 0.5 7.367188 0.550781 6.484375 0.40625 C 5.597656 0.269531 4.800781 -0.015625 4.09375 -0.453125 C 3.394531 -0.890625 2.835938 -1.414062 2.421875 -2.03125 C 2.003906 -2.65625 1.785156 -3.304688 1.765625 -3.984375 C 1.722656 -5.160156 1.6875 -6.457031 1.65625 -7.875 C 1.632812 -9.289062 1.613281 -10.765625 1.59375 -12.296875 C 1.570312 -13.828125 1.5625 -15.332031 1.5625 -16.8125 C 1.5625 -18.289062 1.566406 -19.691406 1.578125 -21.015625 C 1.585938 -22.335938 1.609375 -23.503906 1.640625 -24.515625 C 1.679688 -25.535156 1.734375 -26.320312 1.796875 -26.875 C 2.484375 -27.445312 3.320312 -27.898438 4.3125 -28.234375 C 5.3125 -28.578125 6.359375 -28.734375 7.453125 -28.703125 C 8.546875 -28.679688 9.585938 -28.40625 10.578125 -27.875 C 11.578125 -27.34375 12.421875 -26.503906 13.109375 -25.359375 C 13.597656 -24.523438 14.035156 -23.765625 14.421875 -23.078125 C 14.816406 -22.398438 15.195312 -21.734375 15.5625 -21.078125 C 15.9375 -20.421875 16.320312 -19.734375 16.71875 -19.015625 C 17.125 -18.304688 17.582031 -17.5 18.09375 -16.59375 C 18.15625 -16.476562 18.21875 -16.367188 18.28125 -16.265625 C 18.34375 -16.160156 18.40625 -16.054688 18.46875 -15.953125 C 18.488281 -15.972656 18.503906 -15.984375 18.515625 -15.984375 C 18.535156 -15.984375 18.554688 -15.992188 18.578125 -16.015625 Z M 18.578125 -16.015625 "/></g></g></g><path stroke-linecap="butt" transform="matrix(0.239964, 0, 0, 0.239964, 158.444833, 88.370553)" fill-opacity="1" fill="#ff3131" fill-rule="nonzero" stroke-linejoin="round" d="M 410.676155 194.383899 C 392.379113 189.46779 373.854173 195.083875 361.059267 207.276476 C 354.38508 199.251173 345.33423 193.049062 334.492745 190.151488 C 306.558828 182.663375 277.794707 199.267451 270.306595 227.201368 C 269.753125 229.25246 269.606619 231.31983 269.313606 233.370922 C 244.163313 230.750082 220.103681 246.491398 213.348101 271.690526 C 206.657635 296.661754 219.289756 322.186452 241.981994 332.686089 C 240.744827 335.355764 239.589053 338.106832 238.807685 341.053241 C 231.319572 368.987158 247.939927 397.686165 275.873844 405.174278 C 289.547789 408.836941 303.368241 406.688179 314.844588 400.290726 C 321.176927 413.818164 332.962565 424.708485 348.508539 428.875783 C 370.679865 434.817438 393.193039 425.408461 405.336804 407.371876 C 410.269192 410.855476 415.73877 413.736772 421.892045 415.380901 C 449.825962 422.869014 478.524969 406.23238 486.013082 378.314742 C 489.773417 364.266391 487.44559 350.055255 480.657453 338.416123 C 487.380476 332.002392 492.638434 323.879417 495.210438 314.25882 C 502.698551 286.324903 486.078196 257.625896 458.144279 250.137783 C 455.214148 249.356415 452.267738 248.916895 449.337607 248.640161 C 451.063129 224.108452 435.305535 200.976694 410.676155 194.383899 Z M 410.676155 194.383899 " stroke="#000000" stroke-width="14.79" stroke-opacity="1" stroke-miterlimit="4"/><g fill="#000000" fill-opacity="1"><g transform="translate(229.407084, 176.53219)"><g><path d="M 18.890625 -19.5 C 18.015625 -19.707031 17.238281 -19.78125 16.5625 -19.71875 C 15.894531 -19.664062 15.171875 -19.390625 14.390625 -18.890625 C 13.378906 -18.265625 12.734375 -17.445312 12.453125 -16.4375 C 12.171875 -15.4375 12.101562 -14.375 12.25 -13.25 C 12.40625 -12.132812 12.785156 -11.253906 13.390625 -10.609375 C 14.003906 -9.972656 14.75 -9.550781 15.625 -9.34375 C 16.507812 -9.132812 17.4375 -9.097656 18.40625 -9.234375 C 19.050781 -9.328125 19.71875 -9.53125 20.40625 -9.84375 C 21.101562 -10.15625 21.734375 -10.484375 22.296875 -10.828125 C 22.859375 -11.171875 23.253906 -11.410156 23.484375 -11.546875 C 24.285156 -11.390625 25.003906 -11.019531 25.640625 -10.4375 C 26.273438 -9.863281 26.753906 -9.15625 27.078125 -8.3125 C 27.398438 -7.46875 27.5 -6.566406 27.375 -5.609375 C 27.25 -4.660156 26.828125 -3.734375 26.109375 -2.828125 C 25.398438 -1.929688 24.316406 -1.140625 22.859375 -0.453125 C 22.097656 -0.0976562 21.238281 0.15625 20.28125 0.3125 C 19.320312 0.476562 18.320312 0.566406 17.28125 0.578125 C 16.25 0.585938 15.238281 0.535156 14.25 0.421875 C 13.257812 0.304688 12.347656 0.144531 11.515625 -0.0625 C 9.046875 -0.707031 7.023438 -1.816406 5.453125 -3.390625 C 3.890625 -4.960938 2.753906 -6.957031 2.046875 -9.375 C 1.578125 -11.0625 1.332031 -12.75 1.3125 -14.4375 C 1.289062 -16.132812 1.566406 -17.820312 2.140625 -19.5 C 2.785156 -21.394531 3.742188 -22.988281 5.015625 -24.28125 C 6.285156 -25.570312 7.816406 -26.65625 9.609375 -27.53125 C 11.984375 -28.6875 14.59375 -29.210938 17.4375 -29.109375 C 20.289062 -29.003906 23.25 -28.070312 26.3125 -26.3125 C 26.59375 -25.226562 26.632812 -24.25 26.4375 -23.375 C 26.25 -22.5 25.898438 -21.742188 25.390625 -21.109375 C 24.878906 -20.484375 24.253906 -20 23.515625 -19.65625 C 22.785156 -19.320312 22.015625 -19.132812 21.203125 -19.09375 C 20.398438 -19.050781 19.628906 -19.1875 18.890625 -19.5 Z M 18.890625 -19.5 "/></g></g></g><path stroke-linecap="butt" transform="matrix(0.239964, 0, 0, 0.239964, 201.855284, 110.397084)" fill-opacity="1" fill="#ffbd59" fill-rule="nonzero" stroke-linejoin="round" d="M 410.674927 194.387285 C 392.377886 189.471176 373.852946 195.08726 361.05804 207.279862 C 354.383852 199.254558 345.333003 193.052447 334.491518 190.138595 C 306.557601 182.66676 277.79348 199.270837 270.305367 227.204753 C 269.751898 229.255845 269.605391 231.323216 269.312378 233.374307 C 244.162086 230.753468 220.102454 246.494783 213.346874 271.693911 C 206.656408 296.66514 219.288528 322.189838 241.980766 332.689474 C 240.7436 335.359149 239.587826 338.110217 238.806458 341.056627 C 231.318345 368.974265 247.954978 397.68955 275.872616 405.177663 C 289.546562 408.840327 303.383292 406.691564 314.843361 400.294111 C 321.1757 413.82155 332.961338 424.711871 348.507312 428.879168 C 370.694916 434.820823 393.191811 425.411846 405.335577 407.358983 C 410.267965 410.842583 415.737543 413.723879 421.890818 415.384287 C 449.824735 422.872399 478.523742 406.235766 486.011855 378.318128 C 489.77219 364.269777 487.444363 350.058641 480.656226 338.40323 C 487.379249 332.005777 492.637207 323.882802 495.209211 314.262205 C 502.697324 286.328288 486.076969 257.629282 458.143052 250.141169 C 455.212921 249.359801 452.266511 248.904002 449.33638 248.643546 C 451.061901 224.111837 435.304307 200.98008 410.674927 194.371006 Z M 410.674927 194.387285 " stroke="#000000" stroke-width="14.79" stroke-opacity="1" stroke-miterlimit="4"/><g fill="#000000" fill-opacity="1"><g transform="translate(280.149621, 198.558707)"><g><path d="M 11.71875 -22.921875 C 11.8125 -22.347656 11.878906 -21.523438 11.921875 -20.453125 C 11.972656 -19.378906 12.003906 -18.144531 12.015625 -16.75 C 12.023438 -15.363281 12.019531 -13.921875 12 -12.421875 C 11.976562 -10.921875 11.9375 -9.4375 11.875 -7.96875 C 11.820312 -6.507812 11.757812 -5.164062 11.6875 -3.9375 C 11.613281 -2.71875 11.519531 -1.707031 11.40625 -0.90625 C 10.925781 -0.394531 10.320312 -0.0234375 9.59375 0.203125 C 8.863281 0.429688 8.082031 0.492188 7.25 0.390625 C 6.425781 0.285156 5.625 0 4.84375 -0.46875 C 4.0625 -0.9375 3.367188 -1.601562 2.765625 -2.46875 C 2.171875 -3.332031 1.753906 -4.398438 1.515625 -5.671875 C 1.429688 -6.035156 1.359375 -6.640625 1.296875 -7.484375 C 1.242188 -8.328125 1.191406 -9.320312 1.140625 -10.46875 C 1.097656 -11.625 1.066406 -12.863281 1.046875 -14.1875 C 1.035156 -15.519531 1.03125 -16.851562 1.03125 -18.1875 C 1.039062 -19.53125 1.066406 -20.8125 1.109375 -22.03125 C 1.148438 -23.25 1.210938 -24.328125 1.296875 -25.265625 C 1.378906 -26.203125 1.488281 -26.921875 1.625 -27.421875 C 2.15625 -27.890625 2.804688 -28.25 3.578125 -28.5 C 4.347656 -28.75 5.160156 -28.851562 6.015625 -28.8125 C 6.867188 -28.769531 7.6875 -28.539062 8.46875 -28.125 C 9.257812 -27.707031 9.945312 -27.078125 10.53125 -26.234375 C 11.113281 -25.390625 11.507812 -24.285156 11.71875 -22.921875 Z M 11.71875 -22.921875 "/></g></g></g><path stroke-linecap="butt" transform="matrix(0.239964, 0, 0, 0.239964, 244.694842, 87.216155)" fill-opacity="1" fill="#38b6ff" fill-rule="nonzero" stroke-linejoin="round" d="M 410.676118 194.376179 C 392.379077 189.476349 373.854137 195.092434 361.059231 207.285035 C 354.385043 199.243453 345.334194 193.05762 334.492709 190.143768 C 306.558792 182.655655 277.794671 199.27601 270.306558 227.193648 C 269.753089 229.24474 269.606582 231.31211 269.313569 233.363202 C 244.163277 230.758641 220.103645 246.499957 213.348064 271.699084 C 206.657598 296.654035 219.289719 322.195011 241.981957 332.678369 C 240.744791 335.364323 239.589017 338.11539 238.807648 341.0618 C 231.319535 368.979438 247.93989 397.694723 275.873807 405.166558 C 289.547753 408.829222 303.368204 406.680459 314.844551 400.299284 C 321.17689 413.826723 332.962529 424.717044 348.508502 428.884341 C 370.679828 434.825996 393.193002 425.400741 405.336768 407.364156 C 410.269155 410.847756 415.738734 413.729052 421.892009 415.38946 C 449.825926 422.861294 478.524932 406.240939 486.013045 378.307022 C 489.77338 364.27495 487.445554 350.063814 480.657417 338.408403 C 487.38044 331.994672 492.638397 323.871697 495.210401 314.2511 C 502.698514 286.333462 486.078159 257.618176 458.144243 250.146342 C 455.214111 249.348695 452.267702 248.909176 449.337571 248.632441 C 451.063092 224.11701 435.305498 200.985253 410.676118 194.376179 Z M 410.676118 194.376179 " stroke="#000000" stroke-width="14.79" stroke-opacity="1" stroke-miterlimit="4"/><g fill="#000000" fill-opacity="1"><g transform="translate(313.84396, 175.37779)"><g><path d="M 15.765625 -29.0625 C 17.703125 -29.082031 19.394531 -28.863281 20.84375 -28.40625 C 22.300781 -27.957031 23.539062 -27.367188 24.5625 -26.640625 C 25.59375 -25.921875 26.441406 -25.148438 27.109375 -24.328125 C 27.785156 -23.515625 28.316406 -22.742188 28.703125 -22.015625 C 29.097656 -21.285156 29.378906 -20.691406 29.546875 -20.234375 C 30.210938 -18.410156 30.609375 -16.570312 30.734375 -14.71875 C 30.859375 -12.863281 30.632812 -11 30.0625 -9.125 C 28.507812 -4.125 25.195312 -1.023438 20.125 0.171875 C 18.070312 0.660156 16.046875 0.816406 14.046875 0.640625 C 12.054688 0.460938 10.109375 -0.117188 8.203125 -1.109375 C 6.398438 -2.046875 4.960938 -3.257812 3.890625 -4.75 C 2.816406 -6.238281 2.0625 -7.960938 1.625 -9.921875 C 1.34375 -11.148438 1.175781 -12.410156 1.125 -13.703125 C 1.070312 -14.992188 1.144531 -16.25 1.34375 -17.46875 C 1.550781 -18.6875 1.882812 -19.78125 2.34375 -20.75 C 2.789062 -21.757812 3.375 -22.75 4.09375 -23.71875 C 4.820312 -24.695312 5.71875 -25.585938 6.78125 -26.390625 C 7.84375 -27.203125 9.113281 -27.847656 10.59375 -28.328125 C 12.082031 -28.816406 13.804688 -29.0625 15.765625 -29.0625 Z M 15.90625 -18.859375 C 15.195312 -18.859375 14.539062 -18.664062 13.9375 -18.28125 C 13.34375 -17.894531 12.875 -17.316406 12.53125 -16.546875 C 12.195312 -15.773438 12.066406 -14.820312 12.140625 -13.6875 C 12.210938 -12.582031 12.460938 -11.707031 12.890625 -11.0625 C 13.316406 -10.414062 13.820312 -9.953125 14.40625 -9.671875 C 14.988281 -9.398438 15.523438 -9.28125 16.015625 -9.3125 C 16.523438 -9.351562 17.039062 -9.519531 17.5625 -9.8125 C 18.09375 -10.113281 18.539062 -10.585938 18.90625 -11.234375 C 19.28125 -11.878906 19.492188 -12.734375 19.546875 -13.796875 C 19.628906 -14.878906 19.503906 -15.796875 19.171875 -16.546875 C 18.835938 -17.296875 18.378906 -17.867188 17.796875 -18.265625 C 17.210938 -18.660156 16.582031 -18.859375 15.90625 -18.859375 Z M 15.90625 -18.859375 "/></g></g></g></svg>